<?xml version="1.0" standalone="no"?>
<!DOCTYPE svg PUBLIC "-//W3C//DTD SVG 20010904//EN"
 "http://www.w3.org/TR/2001/REC-SVG-20010904/DTD/svg10.dtd">
<svg version="1.0" xmlns="http://www.w3.org/2000/svg"
 width="500.000000pt" height="500.000000pt" viewBox="0 0 500.000000 500.000000"
 preserveAspectRatio="xMidYMid meet">

<g transform="translate(0.000000,500.000000) scale(0.100000,-0.100000)"
fill="#000000" stroke="none">
<path d="M2387 4919 c-241 -25 -450 -155 -588 -366 -223 -341 -347 -888 -444
-1953 -9 -96 -18 -184 -21 -195 -4 -11 -29 -68 -57 -127 l-50 -108 -119 0
c-119 0 -120 0 -149 -29 l-29 -29 0 -312 0 -312 -44 -131 c-50 -148 -112 -347
-150 -482 -32 -115 -152 -597 -162 -650 -4 -22 -8 -42 -8 -44 -1 -2 864 -4
1922 -5 l1922 -1 0 100 c0 282 -60 623 -149 850 -21 55 -77 183 -125 285 l-86
184 0 244 c0 328 -2 332 -181 332 l-106 0 -61 127 c-56 120 -61 136 -77 253
-131 1001 -271 1602 -447 1920 -90 163 -208 295 -327 364 -122 71 -296 103
-464 85z m226 -615 c127 -64 225 -185 305 -380 68 -165 125 -433 138 -656 l7
-118 -27 -21 c-26 -20 -26 -21 -26 -157 0 -75 -3 -161 -7 -191 -6 -53 -7 -54
-82 -110 -161 -119 -304 -167 -468 -158 -151 8 -275 59 -435 178 l-58 42 0
189 c0 179 -1 189 -22 210 -24 24 -26 78 -7 268 48 498 239 870 475 929 60 15
149 5 207 -25z m-648 -2450 c193 -36 594 -152 612 -177 5 -6 10 -34 11 -62 4
-59 35 -119 77 -145 46 -28 196 -91 205 -85 4 3 13 -2 20 -10 7 -8 16 -12 21
-9 5 3 18 -5 29 -18 12 -14 19 -18 20 -9 0 24 -62 92 -114 122 -41 25 -45 30
-21 24 98 -21 169 -87 235 -219 23 -44 50 -90 60 -101 19 -20 18 -21 -11 -37
-29 -17 -30 -17 -40 5 -5 12 -28 29 -49 39 -27 11 -43 27 -53 50 -21 49 -73
93 -152 129 -94 42 -168 49 -228 20 -49 -24 -67 -53 -67 -112 0 -94 65 -152
234 -209 208 -69 351 -167 402 -275 24 -51 32 -115 14 -115 -5 0 -10 16 -10
35 0 76 -58 153 -150 200 -64 32 -67 32 -38 -7 61 -80 92 -181 86 -278 l-3
-55 -19 80 c-22 95 -62 187 -101 233 -32 38 -96 72 -256 137 -62 25 -132 61
-155 80 -114 94 -113 257 3 339 35 24 43 36 41 56 -5 41 -58 53 -233 54 -156
1 -206 -6 -351 -50 -101 -30 -114 -30 -49 0 133 61 323 105 454 107 83 1 77 3
-99 35 -113 21 -186 27 -329 30 -101 2 -186 6 -189 8 -22 22 465 28 602 8 44
-7 81 -10 83 -8 10 9 -411 145 -569 182 -43 11 -78 22 -78 26 0 8 40 3 155
-18z"/>
</g>
</svg>
